<?xml version="1.0" standalone="no"?>
<!DOCTYPE svg PUBLIC "-//W3C//DTD SVG 20010904//EN"
 "http://www.w3.org/TR/2001/REC-SVG-20010904/DTD/svg10.dtd">
<svg version="1.0" xmlns="http://www.w3.org/2000/svg"
 width="500.000000pt" height="500.000000pt" viewBox="0 0 500.000000 500.000000"
 preserveAspectRatio="xMidYMid meet">

<g transform="translate(0.000000,500.000000) scale(0.100000,-0.100000)"
fill="#000000" stroke="none">
<path d="M3359 3388 c-1 -2 -2 -24 -3 -50 l-2 -48 373 0 373 0 0 -375 0 -375
50 0 50 0 -2 423 -3 422 -417 3 c-230 1 -418 1 -419 0z"/>
<path d="M1240 3170 l0 -40 93 0 c110 0 141 -12 145 -57 5 -50 -24 -63 -140
-63 l-99 0 3 -142 3 -143 45 0 45 0 0 95 0 95 28 3 c26 3 30 -2 74 -97 l46
-101 50 0 c27 0 47 4 45 9 -1 4 -23 51 -47 104 l-43 96 41 39 c28 27 41 48 42
68 3 89 -10 122 -64 154 -27 17 -51 20 -149 20 l-118 0 0 -40z"/>
<path d="M1670 2965 l0 -245 115 0 115 0 0 45 0 45 -70 0 -71 0 3 58 3 57 98
3 97 3 0 39 0 40 -100 0 -100 0 0 60 0 60 70 0 70 0 0 40 0 40 -115 0 -115 0
0 -245z"/>
<path d="M2050 3025 l0 -185 45 0 45 0 0 101 c0 55 4 98 8 95 4 -2 57 -75 117
-160 l108 -156 44 0 43 0 0 245 0 245 -45 0 -45 0 -2 -159 -3 -158 -110 158
-110 158 -47 1 -48 0 0 -185z"/>
<path d="M2560 3115 l0 -95 45 0 45 0 0 55 c0 62 3 64 75 44 49 -13 91 -51
106 -97 14 -41 5 -116 -17 -150 -19 -29 -88 -61 -131 -62 l-33 0 0 55 0 55
-45 0 -45 0 0 -101 0 -102 95 6 c197 11 285 97 273 266 -11 155 -96 221 -285
221 l-83 0 0 -95z"/>
<path d="M3020 2965 l0 -245 115 0 115 0 0 45 0 45 -70 0 -71 0 3 58 3 57 98
3 97 3 0 39 0 39 -97 3 -98 3 0 55 0 55 68 3 67 3 0 39 0 40 -115 0 -115 0 0
-245z"/>
<path d="M3400 3171 l0 -39 106 -4 c114 -3 134 -13 134 -64 0 -41 -35 -54
-142 -54 l-98 0 0 -145 0 -145 45 0 45 0 0 101 0 100 31 -3 c29 -3 34 -10 75
-98 l43 -95 51 -3 50 -3 -25 55 c-14 31 -36 80 -49 110 l-25 53 25 12 c57 25
82 127 49 192 -30 56 -66 69 -197 69 l-118 0 0 -39z"/>
<path d="M839 2638 c-1 -14 0 -818 1 -830 0 -5 189 -8 420 -8 l420 0 0 45 0
45 -372 2 -373 3 -3 378 -2 377 -45 0 c-29 0 -45 -4 -46 -12z"/>
<path d="M1020 2430 l0 -40 95 0 c89 0 98 -2 121 -25 18 -19 23 -31 19 -48
-12 -40 -33 -47 -137 -47 l-98 0 0 -145 0 -145 40 0 40 0 0 100 0 100 48 0
c121 2 192 58 192 152 0 30 -4 47 -10 43 -5 -3 -8 0 -5 7 2 7 -4 23 -15 36
-32 39 -81 52 -190 52 l-100 0 0 -40z"/>
<path d="M1440 2431 l0 -39 105 -4 c57 -1 108 -7 114 -13 22 -23 23 -63 2 -84
-19 -19 -33 -21 -121 -21 l-100 0 0 -145 0 -145 40 0 40 0 0 99 c0 86 2 99 18
103 36 9 48 -5 94 -102 l46 -100 46 0 45 0 -14 33 c-7 17 -29 65 -49 106 l-36
74 30 18 c86 53 79 199 -13 242 -26 13 -63 17 -141 17 l-106 0 0 -39z"/>
<path d="M2010 2457 c-89 -29 -159 -152 -147 -258 10 -85 73 -172 146 -201 39
-15 141 -13 182 4 56 24 107 84 125 147 38 129 -18 259 -133 308 -38 15 -124
16 -173 0z m179 -103 c106 -95 51 -286 -84 -290 -90 -3 -155 66 -155 163 0 95
63 163 151 163 42 0 55 -5 88 -36z"/>
<path d="M2066 2254 c-21 -20 -20 -30 4 -54 17 -17 24 -18 41 -10 27 15 33 34
19 59 -13 25 -42 27 -64 5z"/>
<path d="M2584 2452 c-115 -40 -149 -90 -149 -222 0 -167 71 -231 275 -246
l90 -7 0 47 0 46 -85 0 c-143 0 -195 42 -195 157 0 41 6 68 20 91 23 37 88 71
138 72 l32 0 0 -55 0 -55 45 0 45 0 0 95 0 95 -82 0 c-53 -1 -102 -7 -134 -18z"/>
<path d="M2900 2225 l1 -245 110 0 109 0 0 45 0 45 -70 0 -70 0 0 60 0 60 105
0 106 0 -5 28 c-2 15 -5 33 -5 40 -1 9 -28 12 -101 12 l-100 0 0 60 0 60 70 0
70 0 0 40 0 40 -110 0 -111 0 1 -245z"/>
<path d="M3350 2451 c-19 -10 -43 -32 -53 -49 -21 -35 -25 -109 -8 -140 17
-32 65 -62 116 -71 53 -10 85 -35 85 -66 0 -23 -28 -55 -48 -55 -7 0 -12 -16
-12 -41 l0 -42 38 6 c25 4 48 18 71 43 31 34 33 39 29 95 -3 47 -10 65 -32 88
-26 27 -83 51 -123 51 -27 0 -53 31 -53 62 0 53 71 77 110 38 11 -11 20 -24
20 -30 0 -5 18 -10 40 -10 34 0 40 3 40 21 0 34 -37 85 -74 103 -45 21 -103
20 -146 -3z"/>
<path d="M3745 2451 c-16 -10 -39 -28 -49 -39 -26 -30 -33 -110 -12 -150 17
-33 80 -72 115 -72 32 0 70 -21 77 -42 10 -33 -4 -67 -31 -74 -22 -5 -25 -12
-25 -49 l0 -43 33 7 c43 10 72 29 90 60 44 77 21 163 -55 200 -24 11 -55 21
-69 21 -35 0 -69 27 -69 56 0 38 34 65 80 62 21 -1 39 -4 38 -7 0 -3 3 -16 7
-28 6 -19 15 -23 46 -23 34 0 39 3 39 23 0 35 -38 87 -75 103 -47 19 -104 18
-140 -5z"/>
</g>
</svg>
